<svg width="92" height="92" viewBox="0 0 92 92" fill="none" xmlns="http://www.w3.org/2000/svg">
<path d="M43.4441 79.2248C37.8447 79.2246 32.3234 77.9101 27.3245 75.3872C22.3256 72.8643 17.9886 69.2033 14.6625 64.6988C11.3363 60.1943 9.11384 54.972 8.17381 49.452C7.23378 43.932 7.60245 38.2684 9.25017 32.9168C10.8979 27.5653 13.7786 22.6752 17.6607 18.6399C21.5428 14.6046 26.3178 11.5367 31.6015 9.68318C36.8853 7.82962 42.5304 7.24207 48.0826 7.9678C53.6349 8.69353 58.9393 10.7123 63.5691 13.8616C64.2001 14.2925 64.6341 14.9563 64.7756 15.7071C64.9171 16.4579 64.7546 17.2341 64.3238 17.8651C63.893 18.4961 63.2292 18.93 62.4784 19.0716C61.7276 19.2131 60.9514 19.0506 60.3204 18.6198C54.7762 14.8481 48.1291 13.0406 41.4384 13.4853C34.7477 13.93 28.3983 16.6012 23.4019 21.0734C18.4056 25.5456 15.0499 31.5613 13.8694 38.1621C12.6889 44.7628 13.7517 51.5688 16.8883 57.4954C20.0249 63.4221 25.0549 68.1284 31.1768 70.8644C37.2987 73.6005 44.1602 74.2088 50.668 72.5926C57.1758 70.9763 62.9554 67.2284 67.0858 61.946C71.2162 56.6637 73.4598 50.1509 73.4591 43.4454C73.4513 40.2156 72.9272 37.0078 71.9066 33.9435C71.7699 33.5818 71.7076 33.1961 71.7235 32.8097C71.7393 32.4233 71.8329 32.0441 71.9987 31.6947C72.1645 31.3453 72.3991 31.033 72.6884 30.7764C72.9778 30.5198 73.3159 30.3242 73.6826 30.2013C74.0493 30.0785 74.437 30.0308 74.8225 30.0613C75.208 30.0917 75.5835 30.1997 75.9263 30.3786C76.2691 30.5575 76.5723 30.8038 76.8178 31.1027C77.0632 31.4015 77.2459 31.7468 77.3548 32.1179C79.1392 37.4943 79.6232 43.2173 78.767 48.817C77.9107 54.4167 75.7387 59.7336 72.4291 64.3311C69.1195 68.9286 64.7668 72.6756 59.7282 75.2646C54.6897 77.8537 49.1089 79.2108 43.4441 79.2248Z" fill="#4A17CB"/>
<path d="M39.2724 62.6133C38.8983 62.613 38.5291 62.5144 38.192 62.3249C37.8548 62.1353 37.5584 61.8595 37.3246 61.518L24.8391 43.2336C24.5204 42.6297 24.4005 41.9107 24.5019 41.211C24.6033 40.5113 24.9191 39.8787 25.3902 39.4314C25.8613 38.9841 26.4555 38.7528 27.0618 38.7806C27.6681 38.8084 28.245 39.0935 28.6847 39.5826L38.9852 54.581C43.4176 46.5049 55.5035 27.2859 74.6938 16.8294C75.2871 16.5464 75.9508 16.5412 76.5474 16.8146C77.144 17.0881 77.628 17.6194 77.899 18.2985C78.1701 18.9777 78.2076 19.7528 78.0037 20.4633C77.7999 21.1739 77.3703 21.7656 76.8038 22.1161C54.1301 34.5004 41.5822 60.8316 41.4573 61.0945C41.2551 61.5075 40.9697 61.8564 40.6259 62.1109C40.2821 62.3655 39.8903 62.5179 39.4846 62.5549L39.2724 62.6133Z" fill="#4A17CB"/>
</svg>
