<svg width="24" height="24" viewBox="0 0 24 24" fill="none" xmlns="http://www.w3.org/2000/svg">
<path d="M11.3334 20.6675C9.87269 20.6674 8.43236 20.3246 7.1283 19.6664C5.82424 19.0083 4.69286 18.0532 3.82517 16.8781C2.95747 15.703 2.37769 14.3407 2.13247 12.9007C1.88724 11.4607 1.98342 9.98323 2.41326 8.58717C2.8431 7.19112 3.5946 5.91543 4.60731 4.86275C5.62002 3.81006 6.86567 3.00976 8.24405 2.52622C9.62243 2.04268 11.0951 1.88941 12.5435 2.07873C13.9919 2.26805 15.3756 2.79468 16.5834 3.61625C16.748 3.72864 16.8612 3.90181 16.8982 4.09766C16.9351 4.29352 16.8927 4.49603 16.7803 4.66063C16.6679 4.82523 16.4947 4.93844 16.2989 4.97536C16.103 5.01228 15.9005 4.96989 15.7359 4.8575C14.2896 3.8736 12.5556 3.40208 10.8102 3.51808C9.06478 3.63408 7.40841 4.33092 6.10502 5.49758C4.80163 6.66423 3.92622 8.23356 3.61827 9.95549C3.31032 11.6774 3.58756 13.4529 4.40581 14.999C5.22406 16.5451 6.53624 17.7728 8.13326 18.4865C9.73027 19.2003 11.5202 19.359 13.2179 18.9374C14.9156 18.5157 16.4233 17.538 17.5008 16.16C18.5783 14.782 19.1636 13.083 19.1634 11.3338C19.1614 10.4912 19.0247 9.65439 18.7584 8.855C18.7228 8.76063 18.7065 8.66003 18.7106 8.55923C18.7148 8.45843 18.7392 8.3595 18.7824 8.26836C18.8257 8.17721 18.8869 8.09573 18.9624 8.0288C19.0378 7.96186 19.1261 7.91083 19.2217 7.87878C19.3174 7.84672 19.4185 7.8343 19.5191 7.84224C19.6197 7.85019 19.7176 7.87835 19.807 7.92502C19.8965 7.9717 19.9756 8.03595 20.0396 8.11391C20.1036 8.19187 20.1513 8.28195 20.1797 8.37875C20.6452 9.78129 20.7714 11.2742 20.5481 12.735C20.3247 14.1958 19.7581 15.5828 18.8947 16.7822C18.0313 17.9815 16.8959 18.959 15.5814 19.6344C14.267 20.3098 12.8112 20.6639 11.3334 20.6675Z" fill="#4A17CB"/>
<path d="M10.2451 16.334C10.1476 16.3339 10.0512 16.3082 9.96329 16.2587C9.87534 16.2093 9.79802 16.1374 9.73703 16.0483L6.47995 11.2784C6.39679 11.1209 6.36552 10.9333 6.39198 10.7508C6.41843 10.5682 6.5008 10.4032 6.6237 10.2865C6.7466 10.1699 6.90161 10.1095 7.05977 10.1168C7.21793 10.124 7.36843 10.1984 7.48313 10.326L10.1702 14.2386C11.3265 12.1318 14.4794 7.11815 19.4855 4.39035C19.6403 4.31655 19.8134 4.31517 19.9691 4.38651C20.1247 4.45785 20.2509 4.59644 20.3217 4.77361C20.3924 4.95079 20.4021 5.15298 20.349 5.33835C20.2958 5.52372 20.1837 5.67808 20.0359 5.76949C14.1211 9.00018 10.8477 15.8692 10.8151 15.9378C10.7624 16.0455 10.6879 16.1365 10.5982 16.2029C10.5085 16.2693 10.4063 16.3091 10.3005 16.3187L10.2451 16.334Z" fill="#4A17CB"/>
</svg>
