<svg width="19" height="19" viewBox="0 0 19 19" fill="none" xmlns="http://www.w3.org/2000/svg">
<path d="M13.8359 3.66667H18.4193V5.5H16.5859V17.4167C16.5859 17.6598 16.4894 17.8929 16.3175 18.0648C16.1455 18.2368 15.9124 18.3333 15.6693 18.3333H2.83594C2.59282 18.3333 2.35966 18.2368 2.18776 18.0648C2.01585 17.8929 1.91927 17.6598 1.91927 17.4167V5.5H0.0859375V3.66667H4.66927V0.916667C4.66927 0.673551 4.76585 0.440394 4.93776 0.268485C5.10966 0.0965771 5.34282 0 5.58594 0H12.9193C13.1624 0 13.3955 0.0965771 13.5675 0.268485C13.7394 0.440394 13.8359 0.673551 13.8359 0.916667V3.66667ZM14.7526 5.5H3.7526V16.5H14.7526V5.5ZM6.5026 1.83333V3.66667H12.0026V1.83333H6.5026Z" fill="#2E263D" fill-opacity="0.7"/>
</svg>
