<svg width="22" height="16" viewBox="0 0 22 16" fill="none" xmlns="http://www.w3.org/2000/svg">
<path fill-rule="evenodd" clip-rule="evenodd" d="M20.5562 2.24533L11.8759 9.216C11.6292 9.41417 11.3189 9.52262 10.9986 9.52262C10.6783 9.52262 10.368 9.41417 10.1214 9.216L1.44512 2.24533C1.39857 2.38122 1.37489 2.52348 1.375 2.66667V13.3333C1.375 13.687 1.51987 14.0261 1.77773 14.2761C2.03559 14.5262 2.38533 14.6667 2.75 14.6667H19.25C19.6147 14.6667 19.9644 14.5262 20.2223 14.2761C20.4801 14.0261 20.625 13.687 20.625 13.3333V2.66667C20.6256 2.52355 20.6023 2.38129 20.5562 2.24533ZM2.75 0H19.25C19.9793 0 20.6788 0.280951 21.1945 0.781048C21.7103 1.28115 22 1.95942 22 2.66667V13.3333C22 14.0406 21.7103 14.7189 21.1945 15.219C20.6788 15.719 19.9793 16 19.25 16H2.75C2.02065 16 1.32118 15.719 0.805456 15.219C0.289731 14.7189 0 14.0406 0 13.3333V2.66667C0 1.95942 0.289731 1.28115 0.805456 0.781048C1.32118 0.280951 2.02065 0 2.75 0ZM2.46125 1.33333L10.1283 7.47067C10.3738 7.66734 10.6822 7.77526 11.0006 7.77599C11.3191 7.77671 11.628 7.67021 11.8745 7.47467L19.6185 1.33333H2.46125Z" fill="#696474"/>
</svg>
