<svg width="24" height="24" viewBox="0 0 24 24" fill="none" xmlns="http://www.w3.org/2000/svg">
<path fill-rule="evenodd" clip-rule="evenodd" d="M7.25 10C7.25 8.74022 7.75045 7.53204 8.64124 6.64124C9.53204 5.75045 10.7402 5.25 12 5.25C13.2598 5.25 14.468 5.75045 15.3588 6.64124C16.2496 7.53204 16.75 8.74022 16.75 10C16.75 11.2598 16.2496 12.468 15.3588 13.3588C14.468 14.2496 13.2598 14.75 12 14.75C10.7402 14.75 9.53204 14.2496 8.64124 13.3588C7.75045 12.468 7.25 11.2598 7.25 10ZM12 6.75C11.138 6.75 10.3114 7.09241 9.7019 7.7019C9.09241 8.3114 8.75 9.13805 8.75 10C8.75 10.862 9.09241 11.6886 9.7019 12.2981C10.3114 12.9076 11.138 13.25 12 13.25C12.862 13.25 13.6886 12.9076 14.2981 12.2981C14.9076 11.6886 15.25 10.862 15.25 10C15.25 9.13805 14.9076 8.3114 14.2981 7.7019C13.6886 7.09241 12.862 6.75 12 6.75Z" fill="black"/>
<path fill-rule="evenodd" clip-rule="evenodd" d="M3.52447 8.857C3.69584 6.78397 4.64028 4.85113 6.17037 3.442C7.70045 2.03288 9.70437 1.25046 11.7845 1.25H12.2165C14.2966 1.25046 16.3005 2.03288 17.8306 3.442C19.3607 4.85113 20.3051 6.78397 20.4765 8.857C20.6671 11.1663 19.9536 13.4595 18.4865 15.253L13.6935 21.114C13.4883 21.3648 13.2301 21.567 12.9373 21.7057C12.6445 21.8445 12.3245 21.9165 12.0005 21.9165C11.6764 21.9165 11.3565 21.8445 11.0637 21.7057C10.7709 21.567 10.5126 21.3648 10.3075 21.114L5.51447 15.253C4.0473 13.4595 3.33383 11.1663 3.52447 8.857ZM11.7845 2.75C10.0811 2.75072 8.44019 3.39165 7.18727 4.54565C5.93436 5.69965 5.16095 7.28242 5.02047 8.98C4.86175 10.9019 5.45547 12.8103 6.67647 14.303L11.4695 20.165C11.5339 20.2439 11.6151 20.3074 11.7071 20.351C11.7991 20.3947 11.8996 20.4173 12.0015 20.4173C12.1033 20.4173 12.2039 20.3947 12.2959 20.351C12.3879 20.3074 12.469 20.2439 12.5335 20.165L17.3265 14.303C18.5467 12.81 19.1397 10.9016 18.9805 8.98C18.84 7.28225 18.0664 5.69934 16.8133 4.54531C15.5602 3.39128 13.919 2.75047 12.2155 2.75H11.7845Z" fill="black"/>
</svg>
