<svg width="18" height="18" viewBox="0 0 18 18" fill="none" xmlns="http://www.w3.org/2000/svg">
<rect x="0.5" y="0.5" width="17" height="17" rx="2.5" fill="#F2F3F5" stroke="#C60000"/>
<path d="M5.49101 4.24544L9 7.75428L12.4908 4.26362C12.5679 4.18155 12.6608 4.1159 12.7639 4.0706C12.867 4.0253 12.9782 4.00129 13.0908 4C13.3319 4 13.5631 4.09577 13.7336 4.26625C13.9041 4.43672 13.9999 4.66794 13.9999 4.90903C14.002 5.02047 13.9813 5.13118 13.9391 5.23435C13.8969 5.33752 13.834 5.43097 13.7544 5.50898L10.2181 8.99964L13.7544 12.5358C13.9042 12.6823 13.9921 12.8808 13.9999 13.0903C13.9999 13.3313 13.9041 13.5626 13.7336 13.733C13.5631 13.9035 13.3319 13.9993 13.0908 13.9993C12.9749 14.0041 12.8593 13.9848 12.7514 13.9425C12.6434 13.9002 12.5454 13.836 12.4635 13.7538L9 10.245L5.5001 13.7448C5.42329 13.8241 5.33153 13.8874 5.23011 13.9311C5.1287 13.9748 5.01963 13.998 4.90921 13.9993C4.66811 13.9993 4.43689 13.9035 4.26641 13.733C4.09592 13.5626 4.00015 13.3313 4.00015 13.0903C3.99803 12.9788 4.01871 12.8681 4.06091 12.7649C4.10312 12.6618 4.16597 12.5683 4.2456 12.4903L7.78185 8.99964L4.2456 5.46353C4.09577 5.31696 4.00791 5.11848 4.00015 4.90903C4.00015 4.66794 4.09592 4.43672 4.26641 4.26625C4.43689 4.09577 4.66811 4 4.90921 4C5.12739 4.00273 5.33647 4.0909 5.49101 4.24544Z" fill="#C60000"/>
</svg>
