<svg width="8" height="12" viewBox="0 0 8 12" fill="none" xmlns="http://www.w3.org/2000/svg">
<path d="M6.85708 7.52568L3.99943 10.3905L1.14179 7.52568C1.01635 7.40023 0.846231 7.32975 0.668843 7.32975C0.491455 7.32975 0.321332 7.40023 0.1959 7.52568C0.0704672 7.65114 0 7.82129 0 7.99871C0 8.17613 0.0704672 8.34629 0.1959 8.47174L3.52649 11.8029C3.58841 11.8654 3.66209 11.9149 3.74326 11.9488C3.82443 11.9826 3.9115 12 3.99943 12C4.08737 12 4.17443 11.9826 4.25561 11.9488C4.33678 11.9149 4.41045 11.8654 4.47238 11.8029L7.80296 8.47174C7.86507 8.40962 7.91434 8.33588 7.94795 8.25471C7.98156 8.17355 7.99886 8.08656 7.99886 7.99871C7.99886 7.91086 7.98156 7.82387 7.94795 7.74271C7.91434 7.66155 7.86507 7.5878 7.80296 7.52568C7.74085 7.46356 7.66712 7.41429 7.58597 7.38067C7.50483 7.34705 7.41785 7.32975 7.33002 7.32975C7.24219 7.32975 7.15521 7.34705 7.07406 7.38067C6.99292 7.41429 6.91918 7.46356 6.85708 7.52568ZM1.14179 4.47432L3.99943 1.6095L6.85708 4.47432C6.919 4.53676 6.99267 4.58633 7.07385 4.62015C7.15502 4.65397 7.24208 4.67139 7.33002 4.67139C7.41795 4.67139 7.50502 4.65397 7.58619 4.62015C7.66737 4.58633 7.74104 4.53676 7.80296 4.47432C7.8654 4.41238 7.91495 4.33869 7.94877 4.25751C7.98259 4.17632 8 4.08924 8 4.00129C8 3.91334 7.98259 3.82626 7.94877 3.74507C7.91495 3.66388 7.8654 3.59019 7.80296 3.52826L4.47238 0.197072C4.41045 0.134627 4.33678 0.0850623 4.25561 0.0512383C4.17443 0.0174143 4.08737 0 3.99943 0C3.9115 0 3.82443 0.0174143 3.74326 0.0512383C3.66209 0.0850623 3.58841 0.134627 3.52649 0.197072L0.1959 3.52826C0.133792 3.59038 0.0845254 3.66412 0.0509129 3.74529C0.0173003 3.82645 0 3.91344 0 4.00129C0 4.17871 0.0704672 4.34886 0.1959 4.47432C0.321332 4.59977 0.491455 4.67025 0.668843 4.67025C0.846231 4.67025 1.01635 4.59977 1.14179 4.47432Z" fill="black"/>
</svg>
