<svg width="21" height="17" viewBox="0 0 21 17" fill="none" xmlns="http://www.w3.org/2000/svg">
<path d="M10.1674 0C15.1101 0 19.2223 3.55667 20.0848 8.25C19.2232 12.9433 15.1101 16.5 10.1674 16.5C5.22475 16.5 1.11258 12.9433 0.25 8.25C1.11167 3.55667 5.22475 0 10.1674 0ZM10.1674 14.6667C12.0369 14.6663 13.8509 14.0313 15.3125 12.8656C16.7741 11.6999 17.7967 10.0726 18.213 8.25C17.7952 6.42886 16.7719 4.80334 15.3105 3.63919C13.849 2.47504 12.0359 1.84115 10.1674 1.84115C8.29897 1.84115 6.4858 2.47504 5.02434 3.63919C3.56289 4.80334 2.53962 6.42886 2.12183 8.25C2.53809 10.0726 3.5607 11.6999 5.0223 12.8656C6.4839 14.0313 8.2979 14.6663 10.1674 14.6667ZM10.1674 12.375C9.0734 12.375 8.02419 11.9404 7.2506 11.1668C6.47701 10.3932 6.04242 9.34402 6.04242 8.25C6.04242 7.15598 6.47701 6.10677 7.2506 5.33319C8.02419 4.5596 9.0734 4.125 10.1674 4.125C11.2614 4.125 12.3106 4.5596 13.0842 5.33319C13.8578 6.10677 14.2924 7.15598 14.2924 8.25C14.2924 9.34402 13.8578 10.3932 13.0842 11.1668C12.3106 11.9404 11.2614 12.375 10.1674 12.375ZM10.1674 10.5417C10.7752 10.5417 11.3581 10.3002 11.7879 9.87045C12.2176 9.44068 12.4591 8.85779 12.4591 8.25C12.4591 7.64221 12.2176 7.05932 11.7879 6.62955C11.3581 6.19978 10.7752 5.95833 10.1674 5.95833C9.55963 5.95833 8.97674 6.19978 8.54696 6.62955C8.11719 7.05932 7.87575 7.64221 7.87575 8.25C7.87575 8.85779 8.11719 9.44068 8.54696 9.87045C8.97674 10.3002 9.55963 10.5417 10.1674 10.5417Z" fill="#2E263D" fill-opacity="0.7"/>
</svg>
