<svg width="26" height="20" viewBox="0 0 26 20" fill="none" xmlns="http://www.w3.org/2000/svg">
<g clip-path="url(#clip0_1_11164)">
<path d="M4.72671 19.9006V18.5769C4.72671 18.0694 4.41451 17.7385 3.87937 17.7385C3.61186 17.7385 3.322 17.8267 3.12131 18.1136C2.96531 17.8709 2.74238 17.7385 2.40794 17.7385C2.18491 17.7385 1.96208 17.8046 1.78363 18.0474V17.7826H1.31543V19.9006H1.78363V18.7313C1.78363 18.3563 1.98432 18.1797 2.29652 18.1797C2.60852 18.1797 2.76473 18.3783 2.76473 18.7313V19.9006H3.23293V18.7313C3.23293 18.3563 3.45576 18.1797 3.74562 18.1797C4.05782 18.1797 4.21382 18.3783 4.21382 18.7313V19.9006H4.72671ZM11.6605 17.7826H10.9025V17.1428H10.4343V17.7826H10.0107V18.2017H10.4342V19.1726C10.4342 19.658 10.6349 19.9447 11.17 19.9447C11.3707 19.9447 11.5936 19.8786 11.7498 19.7904L11.6159 19.3932C11.4821 19.4814 11.3261 19.5035 11.2146 19.5035C10.9917 19.5035 10.9025 19.3712 10.9025 19.1505V18.2017H11.6605V17.7826ZM15.6291 17.7384C15.3616 17.7384 15.1833 17.8709 15.0718 18.0474V17.7826H14.6036V19.9006H15.0718V18.7093C15.0718 18.3563 15.2278 18.1577 15.5176 18.1577C15.6068 18.1577 15.7183 18.1798 15.8075 18.2018L15.9412 17.7606C15.8521 17.7385 15.7183 17.7385 15.6291 17.7385M9.63167 17.9592C9.40864 17.8047 9.09654 17.7386 8.76209 17.7386C8.22706 17.7386 7.87038 18.0033 7.87038 18.4225C7.87038 18.7756 8.13789 18.9741 8.60609 19.0403L8.82902 19.0624C9.0743 19.1064 9.20806 19.1727 9.20806 19.283C9.20806 19.4374 9.02971 19.5478 8.71751 19.5478C8.4053 19.5478 8.16013 19.4374 8.00403 19.3272L7.7811 19.6801C8.02637 19.8566 8.36082 19.9448 8.69516 19.9448C9.31947 19.9448 9.67626 19.6581 9.67626 19.2609C9.67626 18.8858 9.3864 18.6873 8.94044 18.6211L8.71751 18.599C8.51682 18.5769 8.36082 18.5329 8.36082 18.4005C8.36082 18.246 8.51682 18.1578 8.76209 18.1578C9.02971 18.1578 9.29723 18.2681 9.43098 18.3343L9.63167 17.9592ZM22.0726 17.7386C21.805 17.7386 21.6266 17.871 21.5151 18.0475V17.7827H21.0469V19.9007H21.5151V18.7094C21.5151 18.3564 21.6712 18.1578 21.961 18.1578C22.0502 18.1578 22.1617 18.1799 22.2509 18.2019L22.3847 17.7607C22.2955 17.7386 22.1617 17.7386 22.0726 17.7386ZM16.0973 18.8417C16.0973 19.4815 16.5432 19.9448 17.2344 19.9448C17.5465 19.9448 17.7695 19.8787 17.9924 19.7022L17.7695 19.3272C17.5911 19.4595 17.4128 19.5256 17.2121 19.5256C16.8331 19.5256 16.5655 19.2609 16.5655 18.8417C16.5655 18.4446 16.8331 18.1798 17.2121 18.1578C17.4128 18.1578 17.5911 18.2239 17.7695 18.3564L17.9924 17.9813C17.7695 17.8047 17.5465 17.7386 17.2344 17.7386C16.5432 17.7386 16.0973 18.2019 16.0973 18.8417ZM20.4227 18.8417V17.7827H19.9545V18.0475C19.7984 17.849 19.5755 17.7386 19.2856 17.7386C18.6836 17.7386 18.2154 18.2019 18.2154 18.8417C18.2154 19.4815 18.6836 19.9448 19.2856 19.9448C19.5977 19.9448 19.8207 19.8346 19.9545 19.636V19.9007H20.4227V18.8417ZM18.7059 18.8417C18.7059 18.4666 18.9511 18.1578 19.3524 18.1578C19.7315 18.1578 19.9991 18.4446 19.9991 18.8417C19.9991 19.2168 19.7315 19.5256 19.3524 19.5256C18.9511 19.5035 18.7059 19.2168 18.7059 18.8417ZM13.1098 17.7386C12.4855 17.7386 12.0395 18.1798 12.0395 18.8417C12.0395 19.5036 12.4854 19.9448 13.132 19.9448C13.4441 19.9448 13.7563 19.8566 14.0016 19.6581L13.7786 19.3272C13.6002 19.4595 13.3773 19.5478 13.1544 19.5478C12.8645 19.5478 12.5746 19.4154 12.5077 19.0402H14.0908V18.8638C14.1131 18.1798 13.7118 17.7386 13.1098 17.7386ZM13.1097 18.1357C13.3994 18.1357 13.6002 18.3123 13.6447 18.6432H12.53C12.5745 18.3564 12.7752 18.1357 13.1097 18.1357ZM24.7256 18.8417V16.9443H24.2574V18.0475C24.1013 17.849 23.8784 17.7386 23.5885 17.7386C22.9865 17.7386 22.5183 18.2019 22.5183 18.8417C22.5183 19.4815 22.9865 19.9448 23.5885 19.9448C23.9007 19.9448 24.1236 19.8346 24.2574 19.636V19.9007H24.7256V18.8417ZM23.0089 18.8417C23.0089 18.4666 23.254 18.1578 23.6554 18.1578C24.0345 18.1578 24.302 18.4446 24.302 18.8417C24.302 19.2168 24.0345 19.5256 23.6554 19.5256C23.254 19.5035 23.0089 19.2168 23.0089 18.8417ZM7.35738 18.8417V17.7827H6.88918V18.0475C6.73308 17.849 6.51015 17.7386 6.22029 17.7386C5.61833 17.7386 5.15013 18.2019 5.15013 18.8417C5.15013 19.4815 5.61833 19.9448 6.22029 19.9448C6.53249 19.9448 6.75542 19.8346 6.88918 19.636V19.9007H7.35738V18.8417ZM5.61833 18.8417C5.61833 18.4666 5.8636 18.1578 6.26488 18.1578C6.64391 18.1578 6.91152 18.4446 6.91152 18.8417C6.91152 19.2168 6.64391 19.5256 6.26488 19.5256C5.8636 19.5035 5.61833 19.2168 5.61833 18.8417Z" fill="black"/>
<path d="M9.47559 1.69922H16.4986V14.1868H9.47559V1.69922Z" fill="#FF5F00"/>
<path d="M9.92154 7.94261C9.92154 5.40543 11.1255 3.15497 12.9759 1.69879C11.616 0.639799 9.8993 0 8.02648 0C3.58952 0 0 3.55206 0 7.94261C0 12.3332 3.58952 15.8852 8.02638 15.8852C9.89919 15.8852 11.6159 15.2454 12.9759 14.1863C11.1255 12.7523 9.92154 10.4798 9.92154 7.94261Z" fill="#EB001B"/>
<path d="M25.974 7.94261C25.974 12.3331 22.3845 15.8852 17.9476 15.8852C16.0748 15.8852 14.3581 15.2454 12.998 14.1863C14.8709 12.7303 16.0525 10.4798 16.0525 7.94261C16.0525 5.40543 14.8485 3.15497 12.998 1.69879C14.358 0.639799 16.0748 0 17.9476 0C22.3845 0 25.974 3.57417 25.974 7.94261Z" fill="#F79E1B"/>
</g>
<defs>
<clipPath id="clip0_1_11164">
<rect width="26" height="20" fill="white"/>
</clipPath>
</defs>
</svg>
