<svg width="16" height="18" viewBox="0 0 16 18" fill="none" xmlns="http://www.w3.org/2000/svg">
<path d="M10.5004 14V14.625C10.5004 15.288 10.237 15.9239 9.7682 16.3928C9.29936 16.8616 8.66348 17.125 8.00044 17.125C7.3374 17.125 6.70151 16.8616 6.23267 16.3928C5.76383 15.9239 5.50044 15.288 5.50044 14.625V14M14.7067 12.7277C13.7036 11.5 12.9954 10.875 12.9954 7.49023C12.9954 4.39063 11.4125 3.28633 10.1098 2.75C9.93677 2.67891 9.77387 2.51562 9.72114 2.33789C9.49262 1.56016 8.852 0.875 8.00044 0.875C7.14887 0.875 6.50786 1.56055 6.28169 2.33867C6.22895 2.51836 6.06606 2.67891 5.89302 2.75C4.58872 3.28711 3.00747 4.3875 3.00747 7.49023C3.00552 10.875 2.29731 11.5 1.29419 12.7277C0.878562 13.2363 1.24262 14 1.96958 14H14.0352C14.7582 14 15.12 13.234 14.7067 12.7277Z" stroke="#444444" stroke-width="1.5" stroke-linecap="round" stroke-linejoin="round"/>
</svg>
