<svg width="24" height="24" viewBox="0 0 24 24" fill="none" xmlns="http://www.w3.org/2000/svg">
<mask id="path-1-outside-1_1_5426" maskUnits="userSpaceOnUse" x="1.63086" y="1.63086" width="21" height="22" fill="black">
<rect fill="white" x="1.63086" y="1.63086" width="21" height="22"/>
<path d="M20.4203 8.95242C21.2158 10.3213 21.5309 11.9169 21.3155 13.4854C21.1001 15.0539 20.3666 16.5055 19.2315 17.6093C18.8633 18.967 18.1014 20.1853 17.0418 21.1106C15.9823 22.036 14.6726 22.627 13.2777 22.8091C11.8828 22.9913 10.4652 22.7565 9.20354 22.1343C7.9419 21.5121 6.89267 20.5303 6.1881 19.3127L2.90685 13.6296C2.7114 13.2908 2.6163 12.9034 2.63266 12.5127C2.64903 12.1219 2.77616 11.7438 2.99925 11.4225C3.22234 11.1013 3.53217 10.8501 3.89262 10.6982C4.25306 10.5464 4.64925 10.5001 5.03498 10.5649L4.32998 9.34617C4.14085 9.01845 4.04552 8.64501 4.05443 8.26673C4.06334 7.88846 4.17613 7.51992 4.38047 7.20146C4.58481 6.883 4.87281 6.62688 5.21297 6.46115C5.55312 6.29541 5.93231 6.22645 6.30904 6.2618L6.22091 6.10805C5.93771 5.63998 5.85205 5.07858 5.98277 4.54736C6.11349 4.01613 6.44988 3.55859 6.91795 3.27539C7.38601 2.99219 7.94741 2.90652 8.47863 3.03724C9.00986 3.16796 9.4674 3.50436 9.7506 3.97242C9.88715 3.60642 10.1248 3.28672 10.436 3.05053C10.7472 2.81434 11.119 2.67138 11.5082 2.63828C11.8975 2.60518 12.2881 2.6833 12.6347 2.86356C12.9813 3.04381 13.2695 3.31879 13.4659 3.65648L14.9209 6.17648C15.0577 5.81008 15.2959 5.49012 15.6076 5.25393C15.9194 5.01775 16.2918 4.87507 16.6816 4.84254C17.0714 4.81001 17.4623 4.88897 17.8089 5.07022C18.1555 5.25146 18.4434 5.52751 18.639 5.86617L20.4203 8.95242ZM10.5428 5.34398L11.1325 6.36492C11.3071 6.51455 11.4552 6.6927 11.5703 6.8918L13.0262 9.40898C13.1849 8.98401 13.4796 8.62341 13.8645 8.38332C14.2494 8.14323 14.7029 8.03711 15.1544 8.08148L12.8162 4.03148C12.73 3.88221 12.6153 3.75137 12.4786 3.64643C12.3418 3.5415 12.1857 3.46453 12.0193 3.41991C11.8528 3.3753 11.6791 3.36391 11.5082 3.38641C11.3373 3.4089 11.1725 3.46483 11.0233 3.55101C10.7218 3.72506 10.5018 4.01174 10.4117 4.34799C10.3671 4.51448 10.3557 4.68813 10.3782 4.85903C10.4007 5.02992 10.4566 5.19471 10.5428 5.34398ZM7.45935 6.75023C7.6114 6.88166 7.74314 7.03489 7.85029 7.20492C8.00715 6.7774 8.30176 6.4142 8.68772 6.17251C9.07367 5.93082 9.52906 5.82437 9.98216 5.86992L9.13841 4.4168C9.05447 4.26333 8.94069 4.12819 8.80377 4.01933C8.66685 3.91046 8.50956 3.83007 8.34112 3.78286C8.17269 3.73565 7.99652 3.72259 7.82296 3.74445C7.64941 3.7663 7.48198 3.82262 7.3305 3.91011C7.17903 3.99759 7.04657 4.11448 6.94091 4.25388C6.83525 4.39329 6.75852 4.55242 6.71524 4.7219C6.67196 4.89138 6.66299 5.06781 6.68887 5.24081C6.71474 5.41381 6.77494 5.57989 6.86591 5.7293L7.45935 6.75023ZM18.5115 17.4012C18.7305 16.5926 18.787 15.7487 18.6777 14.9182C18.5685 14.0877 18.2956 13.2871 17.875 12.5627L16.0937 9.47742C15.9191 9.17636 15.6321 8.95697 15.2958 8.86749C14.9595 8.778 14.6014 8.82575 14.3003 9.00023C14.0123 9.16724 13.7985 9.43747 13.7022 9.75618C13.606 10.0749 13.6344 10.4183 13.7819 10.7168L14.8506 12.5637C14.8752 12.6063 14.8912 12.6534 14.8976 12.7023C14.9041 12.7511 14.9008 12.8007 14.888 12.8483C14.8753 12.8959 14.8533 12.9405 14.8233 12.9795C14.7933 13.0186 14.7559 13.0514 14.7133 13.076C14.6706 13.1006 14.6235 13.1166 14.5747 13.123C14.5258 13.1295 14.4762 13.1262 14.4286 13.1135C14.3811 13.1007 14.3365 13.0787 14.2974 13.0487C14.2583 13.0187 14.2255 12.9813 14.2009 12.9387L10.9197 7.2668C10.742 6.97466 10.4573 6.7634 10.1262 6.67796C9.79515 6.59252 9.4438 6.63966 9.14695 6.80934C8.8501 6.97903 8.63118 7.25786 8.53679 7.58649C8.4424 7.91513 8.47998 8.26763 8.64154 8.56898L10.9506 12.5627C11.0003 12.6489 11.0138 12.7513 10.988 12.8474C10.9623 12.9434 10.8994 13.0253 10.8133 13.0751C10.7271 13.1248 10.6247 13.1383 10.5286 13.1125C10.4326 13.0868 10.3506 13.0239 10.3009 12.9377L7.24748 7.65586C7.16353 7.50239 7.04975 7.36726 6.91284 7.25839C6.77592 7.14953 6.61862 7.06913 6.45018 7.02192C6.28175 6.97472 6.10558 6.96166 5.93203 6.98351C5.75847 7.00536 5.59104 7.06169 5.43956 7.14917C5.28809 7.23666 5.15563 7.35354 5.04997 7.49295C4.94431 7.63236 4.86759 7.79148 4.8243 7.96096C4.78102 8.13045 4.77205 8.30687 4.79793 8.47987C4.8238 8.65287 4.884 8.81896 4.97498 8.96836L8.34998 14.8146C8.3997 14.9008 8.41317 15.0031 8.38741 15.0992C8.36166 15.1953 8.29879 15.2772 8.21263 15.327C8.12648 15.3767 8.0241 15.3901 7.92802 15.3644C7.83193 15.3386 7.75002 15.2758 7.70029 15.1896L5.82529 11.9421C5.73911 11.7928 5.62437 11.662 5.48762 11.5571C5.35088 11.4521 5.1948 11.3752 5.02831 11.3305C4.86182 11.2859 4.68817 11.2745 4.51728 11.297C4.34638 11.3195 4.1816 11.3755 4.03232 11.4616C3.88304 11.5478 3.7522 11.6626 3.64727 11.7993C3.54234 11.936 3.46536 12.0921 3.42075 12.2586C3.37613 12.4251 3.36475 12.5988 3.38724 12.7697C3.40974 12.9405 3.46567 13.1053 3.55185 13.2546L6.8331 18.9387C7.46356 20.0305 8.40361 20.9109 9.53441 21.4685C10.6652 22.0261 11.9359 22.2359 13.186 22.0713C14.436 21.9068 15.6091 21.3752 16.5571 20.544C17.505 19.7127 18.1852 18.619 18.5115 17.4012ZM19.7706 9.32742L17.9894 6.24211C17.9032 6.09283 17.7884 5.96199 17.6517 5.85706C17.5149 5.75213 17.3589 5.67515 17.1924 5.63054C17.0259 5.58592 16.8522 5.57454 16.6813 5.59703C16.5104 5.61953 16.3457 5.67546 16.1964 5.76164C16.0471 5.84782 15.9163 5.96256 15.8113 6.0993C15.7064 6.23605 15.6294 6.39212 15.5848 6.55862C15.5402 6.72511 15.5288 6.89876 15.5513 7.06965C15.5738 7.24054 15.6297 7.40533 15.7159 7.55461L16.3037 8.57367C16.4787 8.72421 16.6273 8.90292 16.7434 9.10242L18.5247 12.1877C19.2269 13.3972 19.5551 14.7876 19.4678 16.1834C20.1694 15.1895 20.571 14.0152 20.6247 12.7998C20.6783 11.5844 20.3819 10.3792 19.7706 9.32742Z"/>
</mask>
<path d="M20.4203 8.95242C21.2158 10.3213 21.5309 11.9169 21.3155 13.4854C21.1001 15.0539 20.3666 16.5055 19.2315 17.6093C18.8633 18.967 18.1014 20.1853 17.0418 21.1106C15.9823 22.036 14.6726 22.627 13.2777 22.8091C11.8828 22.9913 10.4652 22.7565 9.20354 22.1343C7.9419 21.5121 6.89267 20.5303 6.1881 19.3127L2.90685 13.6296C2.7114 13.2908 2.6163 12.9034 2.63266 12.5127C2.64903 12.1219 2.77616 11.7438 2.99925 11.4225C3.22234 11.1013 3.53217 10.8501 3.89262 10.6982C4.25306 10.5464 4.64925 10.5001 5.03498 10.5649L4.32998 9.34617C4.14085 9.01845 4.04552 8.64501 4.05443 8.26673C4.06334 7.88846 4.17613 7.51992 4.38047 7.20146C4.58481 6.883 4.87281 6.62688 5.21297 6.46115C5.55312 6.29541 5.93231 6.22645 6.30904 6.2618L6.22091 6.10805C5.93771 5.63998 5.85205 5.07858 5.98277 4.54736C6.11349 4.01613 6.44988 3.55859 6.91795 3.27539C7.38601 2.99219 7.94741 2.90652 8.47863 3.03724C9.00986 3.16796 9.4674 3.50436 9.7506 3.97242C9.88715 3.60642 10.1248 3.28672 10.436 3.05053C10.7472 2.81434 11.119 2.67138 11.5082 2.63828C11.8975 2.60518 12.2881 2.6833 12.6347 2.86356C12.9813 3.04381 13.2695 3.31879 13.4659 3.65648L14.9209 6.17648C15.0577 5.81008 15.2959 5.49012 15.6076 5.25393C15.9194 5.01775 16.2918 4.87507 16.6816 4.84254C17.0714 4.81001 17.4623 4.88897 17.8089 5.07022C18.1555 5.25146 18.4434 5.52751 18.639 5.86617L20.4203 8.95242ZM10.5428 5.34398L11.1325 6.36492C11.3071 6.51455 11.4552 6.6927 11.5703 6.8918L13.0262 9.40898C13.1849 8.98401 13.4796 8.62341 13.8645 8.38332C14.2494 8.14323 14.7029 8.03711 15.1544 8.08148L12.8162 4.03148C12.73 3.88221 12.6153 3.75137 12.4786 3.64643C12.3418 3.5415 12.1857 3.46453 12.0193 3.41991C11.8528 3.3753 11.6791 3.36391 11.5082 3.38641C11.3373 3.4089 11.1725 3.46483 11.0233 3.55101C10.7218 3.72506 10.5018 4.01174 10.4117 4.34799C10.3671 4.51448 10.3557 4.68813 10.3782 4.85903C10.4007 5.02992 10.4566 5.19471 10.5428 5.34398ZM7.45935 6.75023C7.6114 6.88166 7.74314 7.03489 7.85029 7.20492C8.00715 6.7774 8.30176 6.4142 8.68772 6.17251C9.07367 5.93082 9.52906 5.82437 9.98216 5.86992L9.13841 4.4168C9.05447 4.26333 8.94069 4.12819 8.80377 4.01933C8.66685 3.91046 8.50956 3.83007 8.34112 3.78286C8.17269 3.73565 7.99652 3.72259 7.82296 3.74445C7.64941 3.7663 7.48198 3.82262 7.3305 3.91011C7.17903 3.99759 7.04657 4.11448 6.94091 4.25388C6.83525 4.39329 6.75852 4.55242 6.71524 4.7219C6.67196 4.89138 6.66299 5.06781 6.68887 5.24081C6.71474 5.41381 6.77494 5.57989 6.86591 5.7293L7.45935 6.75023ZM18.5115 17.4012C18.7305 16.5926 18.787 15.7487 18.6777 14.9182C18.5685 14.0877 18.2956 13.2871 17.875 12.5627L16.0937 9.47742C15.9191 9.17636 15.6321 8.95697 15.2958 8.86749C14.9595 8.778 14.6014 8.82575 14.3003 9.00023C14.0123 9.16724 13.7985 9.43747 13.7022 9.75618C13.606 10.0749 13.6344 10.4183 13.7819 10.7168L14.8506 12.5637C14.8752 12.6063 14.8912 12.6534 14.8976 12.7023C14.9041 12.7511 14.9008 12.8007 14.888 12.8483C14.8753 12.8959 14.8533 12.9405 14.8233 12.9795C14.7933 13.0186 14.7559 13.0514 14.7133 13.076C14.6706 13.1006 14.6235 13.1166 14.5747 13.123C14.5258 13.1295 14.4762 13.1262 14.4286 13.1135C14.3811 13.1007 14.3365 13.0787 14.2974 13.0487C14.2583 13.0187 14.2255 12.9813 14.2009 12.9387L10.9197 7.2668C10.742 6.97466 10.4573 6.7634 10.1262 6.67796C9.79515 6.59252 9.4438 6.63966 9.14695 6.80934C8.8501 6.97903 8.63118 7.25786 8.53679 7.58649C8.4424 7.91513 8.47998 8.26763 8.64154 8.56898L10.9506 12.5627C11.0003 12.6489 11.0138 12.7513 10.988 12.8474C10.9623 12.9434 10.8994 13.0253 10.8133 13.0751C10.7271 13.1248 10.6247 13.1383 10.5286 13.1125C10.4326 13.0868 10.3506 13.0239 10.3009 12.9377L7.24748 7.65586C7.16353 7.50239 7.04975 7.36726 6.91284 7.25839C6.77592 7.14953 6.61862 7.06913 6.45018 7.02192C6.28175 6.97472 6.10558 6.96166 5.93203 6.98351C5.75847 7.00536 5.59104 7.06169 5.43956 7.14917C5.28809 7.23666 5.15563 7.35354 5.04997 7.49295C4.94431 7.63236 4.86759 7.79148 4.8243 7.96096C4.78102 8.13045 4.77205 8.30687 4.79793 8.47987C4.8238 8.65287 4.884 8.81896 4.97498 8.96836L8.34998 14.8146C8.3997 14.9008 8.41317 15.0031 8.38741 15.0992C8.36166 15.1953 8.29879 15.2772 8.21263 15.327C8.12648 15.3767 8.0241 15.3901 7.92802 15.3644C7.83193 15.3386 7.75002 15.2758 7.70029 15.1896L5.82529 11.9421C5.73911 11.7928 5.62437 11.662 5.48762 11.5571C5.35088 11.4521 5.1948 11.3752 5.02831 11.3305C4.86182 11.2859 4.68817 11.2745 4.51728 11.297C4.34638 11.3195 4.1816 11.3755 4.03232 11.4616C3.88304 11.5478 3.7522 11.6626 3.64727 11.7993C3.54234 11.936 3.46536 12.0921 3.42075 12.2586C3.37613 12.4251 3.36475 12.5988 3.38724 12.7697C3.40974 12.9405 3.46567 13.1053 3.55185 13.2546L6.8331 18.9387C7.46356 20.0305 8.40361 20.9109 9.53441 21.4685C10.6652 22.0261 11.9359 22.2359 13.186 22.0713C14.436 21.9068 15.6091 21.3752 16.5571 20.544C17.505 19.7127 18.1852 18.619 18.5115 17.4012ZM19.7706 9.32742L17.9894 6.24211C17.9032 6.09283 17.7884 5.96199 17.6517 5.85706C17.5149 5.75213 17.3589 5.67515 17.1924 5.63054C17.0259 5.58592 16.8522 5.57454 16.6813 5.59703C16.5104 5.61953 16.3457 5.67546 16.1964 5.76164C16.0471 5.84782 15.9163 5.96256 15.8113 6.0993C15.7064 6.23605 15.6294 6.39212 15.5848 6.55862C15.5402 6.72511 15.5288 6.89876 15.5513 7.06965C15.5738 7.24054 15.6297 7.40533 15.7159 7.55461L16.3037 8.57367C16.4787 8.72421 16.6273 8.90292 16.7434 9.10242L18.5247 12.1877C19.2269 13.3972 19.5551 14.7876 19.4678 16.1834C20.1694 15.1895 20.571 14.0152 20.6247 12.7998C20.6783 11.5844 20.3819 10.3792 19.7706 9.32742Z" fill="#17B6E5"/>
<path d="M20.4203 8.95242C21.2158 10.3213 21.5309 11.9169 21.3155 13.4854C21.1001 15.0539 20.3666 16.5055 19.2315 17.6093C18.8633 18.967 18.1014 20.1853 17.0418 21.1106C15.9823 22.036 14.6726 22.627 13.2777 22.8091C11.8828 22.9913 10.4652 22.7565 9.20354 22.1343C7.9419 21.5121 6.89267 20.5303 6.1881 19.3127L2.90685 13.6296C2.7114 13.2908 2.6163 12.9034 2.63266 12.5127C2.64903 12.1219 2.77616 11.7438 2.99925 11.4225C3.22234 11.1013 3.53217 10.8501 3.89262 10.6982C4.25306 10.5464 4.64925 10.5001 5.03498 10.5649L4.32998 9.34617C4.14085 9.01845 4.04552 8.64501 4.05443 8.26673C4.06334 7.88846 4.17613 7.51992 4.38047 7.20146C4.58481 6.883 4.87281 6.62688 5.21297 6.46115C5.55312 6.29541 5.93231 6.22645 6.30904 6.2618L6.22091 6.10805C5.93771 5.63998 5.85205 5.07858 5.98277 4.54736C6.11349 4.01613 6.44988 3.55859 6.91795 3.27539C7.38601 2.99219 7.94741 2.90652 8.47863 3.03724C9.00986 3.16796 9.4674 3.50436 9.7506 3.97242C9.88715 3.60642 10.1248 3.28672 10.436 3.05053C10.7472 2.81434 11.119 2.67138 11.5082 2.63828C11.8975 2.60518 12.2881 2.6833 12.6347 2.86356C12.9813 3.04381 13.2695 3.31879 13.4659 3.65648L14.9209 6.17648C15.0577 5.81008 15.2959 5.49012 15.6076 5.25393C15.9194 5.01775 16.2918 4.87507 16.6816 4.84254C17.0714 4.81001 17.4623 4.88897 17.8089 5.07022C18.1555 5.25146 18.4434 5.52751 18.639 5.86617L20.4203 8.95242ZM10.5428 5.34398L11.1325 6.36492C11.3071 6.51455 11.4552 6.6927 11.5703 6.8918L13.0262 9.40898C13.1849 8.98401 13.4796 8.62341 13.8645 8.38332C14.2494 8.14323 14.7029 8.03711 15.1544 8.08148L12.8162 4.03148C12.73 3.88221 12.6153 3.75137 12.4786 3.64643C12.3418 3.5415 12.1857 3.46453 12.0193 3.41991C11.8528 3.3753 11.6791 3.36391 11.5082 3.38641C11.3373 3.4089 11.1725 3.46483 11.0233 3.55101C10.7218 3.72506 10.5018 4.01174 10.4117 4.34799C10.3671 4.51448 10.3557 4.68813 10.3782 4.85903C10.4007 5.02992 10.4566 5.19471 10.5428 5.34398ZM7.45935 6.75023C7.6114 6.88166 7.74314 7.03489 7.85029 7.20492C8.00715 6.7774 8.30176 6.4142 8.68772 6.17251C9.07367 5.93082 9.52906 5.82437 9.98216 5.86992L9.13841 4.4168C9.05447 4.26333 8.94069 4.12819 8.80377 4.01933C8.66685 3.91046 8.50956 3.83007 8.34112 3.78286C8.17269 3.73565 7.99652 3.72259 7.82296 3.74445C7.64941 3.7663 7.48198 3.82262 7.3305 3.91011C7.17903 3.99759 7.04657 4.11448 6.94091 4.25388C6.83525 4.39329 6.75852 4.55242 6.71524 4.7219C6.67196 4.89138 6.66299 5.06781 6.68887 5.24081C6.71474 5.41381 6.77494 5.57989 6.86591 5.7293L7.45935 6.75023ZM18.5115 17.4012C18.7305 16.5926 18.787 15.7487 18.6777 14.9182C18.5685 14.0877 18.2956 13.2871 17.875 12.5627L16.0937 9.47742C15.9191 9.17636 15.6321 8.95697 15.2958 8.86749C14.9595 8.778 14.6014 8.82575 14.3003 9.00023C14.0123 9.16724 13.7985 9.43747 13.7022 9.75618C13.606 10.0749 13.6344 10.4183 13.7819 10.7168L14.8506 12.5637C14.8752 12.6063 14.8912 12.6534 14.8976 12.7023C14.9041 12.7511 14.9008 12.8007 14.888 12.8483C14.8753 12.8959 14.8533 12.9405 14.8233 12.9795C14.7933 13.0186 14.7559 13.0514 14.7133 13.076C14.6706 13.1006 14.6235 13.1166 14.5747 13.123C14.5258 13.1295 14.4762 13.1262 14.4286 13.1135C14.3811 13.1007 14.3365 13.0787 14.2974 13.0487C14.2583 13.0187 14.2255 12.9813 14.2009 12.9387L10.9197 7.2668C10.742 6.97466 10.4573 6.7634 10.1262 6.67796C9.79515 6.59252 9.4438 6.63966 9.14695 6.80934C8.8501 6.97903 8.63118 7.25786 8.53679 7.58649C8.4424 7.91513 8.47998 8.26763 8.64154 8.56898L10.9506 12.5627C11.0003 12.6489 11.0138 12.7513 10.988 12.8474C10.9623 12.9434 10.8994 13.0253 10.8133 13.0751C10.7271 13.1248 10.6247 13.1383 10.5286 13.1125C10.4326 13.0868 10.3506 13.0239 10.3009 12.9377L7.24748 7.65586C7.16353 7.50239 7.04975 7.36726 6.91284 7.25839C6.77592 7.14953 6.61862 7.06913 6.45018 7.02192C6.28175 6.97472 6.10558 6.96166 5.93203 6.98351C5.75847 7.00536 5.59104 7.06169 5.43956 7.14917C5.28809 7.23666 5.15563 7.35354 5.04997 7.49295C4.94431 7.63236 4.86759 7.79148 4.8243 7.96096C4.78102 8.13045 4.77205 8.30687 4.79793 8.47987C4.8238 8.65287 4.884 8.81896 4.97498 8.96836L8.34998 14.8146C8.3997 14.9008 8.41317 15.0031 8.38741 15.0992C8.36166 15.1953 8.29879 15.2772 8.21263 15.327C8.12648 15.3767 8.0241 15.3901 7.92802 15.3644C7.83193 15.3386 7.75002 15.2758 7.70029 15.1896L5.82529 11.9421C5.73911 11.7928 5.62437 11.662 5.48762 11.5571C5.35088 11.4521 5.1948 11.3752 5.02831 11.3305C4.86182 11.2859 4.68817 11.2745 4.51728 11.297C4.34638 11.3195 4.1816 11.3755 4.03232 11.4616C3.88304 11.5478 3.7522 11.6626 3.64727 11.7993C3.54234 11.936 3.46536 12.0921 3.42075 12.2586C3.37613 12.4251 3.36475 12.5988 3.38724 12.7697C3.40974 12.9405 3.46567 13.1053 3.55185 13.2546L6.8331 18.9387C7.46356 20.0305 8.40361 20.9109 9.53441 21.4685C10.6652 22.0261 11.9359 22.2359 13.186 22.0713C14.436 21.9068 15.6091 21.3752 16.5571 20.544C17.505 19.7127 18.1852 18.619 18.5115 17.4012ZM19.7706 9.32742L17.9894 6.24211C17.9032 6.09283 17.7884 5.96199 17.6517 5.85706C17.5149 5.75213 17.3589 5.67515 17.1924 5.63054C17.0259 5.58592 16.8522 5.57454 16.6813 5.59703C16.5104 5.61953 16.3457 5.67546 16.1964 5.76164C16.0471 5.84782 15.9163 5.96256 15.8113 6.0993C15.7064 6.23605 15.6294 6.39212 15.5848 6.55862C15.5402 6.72511 15.5288 6.89876 15.5513 7.06965C15.5738 7.24054 15.6297 7.40533 15.7159 7.55461L16.3037 8.57367C16.4787 8.72421 16.6273 8.90292 16.7434 9.10242L18.5247 12.1877C19.2269 13.3972 19.5551 14.7876 19.4678 16.1834C20.1694 15.1895 20.571 14.0152 20.6247 12.7998C20.6783 11.5844 20.3819 10.3792 19.7706 9.32742Z" stroke="#17B6E5" mask="url(#path-1-outside-1_1_5426)"/>
</svg>
